<svg width="1440" height="1063" viewBox="0 0 1440 1063" fill="none" xmlns="http://www.w3.org/2000/svg">
<path opacity="0.0144928" d="M1303.4 830.876C1318.07 846.416 1341.94 846.426 1344.35 830.892L1408.15 419.649C1410.36 405.417 1392.57 388.513 1375.38 388.506L923.096 388.323C905.907 388.316 901.462 405.211 914.907 419.449L1303.4 830.876Z" stroke="url(#paint0_linear_200_58)" stroke-opacity="0.2" stroke-width="4"/>
<path opacity="0.0289855" d="M1261.76 826.13C1275.32 841.908 1298.57 842.725 1302.32 827.555L1400.88 429.301C1404.42 414.983 1387.74 396.951 1370.38 396.341L915.965 380.376C898.611 379.766 893.103 397.018 905.898 411.911L1261.76 826.13Z" stroke="url(#paint1_linear_200_58)" stroke-opacity="0.2" stroke-width="4"/>
<path opacity="0.0434783" d="M1220.18 820.563C1232.58 836.527 1255.23 838.092 1260.31 823.336L1392.57 439.067C1397.5 424.741 1382.08 405.662 1364.59 404.453L909.434 372.999C891.945 371.791 885.25 389.341 897.287 404.839L1220.18 820.563Z" stroke="url(#paint2_linear_200_58)" stroke-opacity="0.2" stroke-width="4"/>
<path opacity="0.057971" d="M1178.73 814.189C1189.94 830.288 1212.03 832.552 1218.4 818.257L1383.25 448.869C1389.6 434.625 1375.59 414.609 1358 412.805L903.439 366.199C885.847 364.396 877.84 382.154 889.011 398.196L1178.73 814.189Z" stroke="url(#paint3_linear_200_58)" stroke-opacity="0.2" stroke-width="4"/>
<path opacity="0.0724638" d="M1137.49 807.023C1147.49 823.21 1169.05 826.134 1176.7 812.34L1372.91 458.636C1380.72 444.571 1368.25 423.755 1350.59 421.36L897.914 359.979C880.255 357.585 870.82 375.432 881.018 391.937L1137.49 807.023Z" stroke="url(#paint4_linear_200_58)" stroke-opacity="0.2" stroke-width="4"/>
<path opacity="0.0869565" d="M1096.54 799.084C1105.31 815.315 1126.41 818.87 1135.3 805.615L1361.62 468.296C1370.87 454.516 1360.06 433.068 1342.38 430.088L892.79 354.338C875.105 351.359 864.145 369.14 873.265 386.014L1096.54 799.084Z" stroke="url(#paint5_linear_200_58)" stroke-opacity="0.2" stroke-width="4"/>
<path opacity="0.101449" d="M1055.96 790.395C1063.49 806.628 1084.19 810.796 1094.29 798.115L1349.42 477.794C1360.08 464.406 1351.03 442.517 1333.36 438.958L888.003 349.269C870.333 345.71 857.779 363.248 865.729 380.384L1055.96 790.395Z" stroke="url(#paint6_linear_200_58)" stroke-opacity="0.2" stroke-width="4"/>
<path opacity="0.115942" d="M1015.83 780.982C1022.12 797.179 1042.49 801.956 1053.76 789.875L1336.36 487.083C1348.39 474.195 1341.14 452.071 1323.53 447.942L883.489 344.761C865.88 340.632 851.698 357.729 858.399 375.009L1015.83 780.982Z" stroke="url(#paint7_linear_200_58)" stroke-opacity="0.2" stroke-width="4"/>
<path opacity="0.130435" d="M976.246 770.877C981.272 787.002 1001.38 792.392 1013.8 780.939L1322.53 496.135C1335.85 483.849 1330.39 461.703 1312.89 457.013L879.192 340.805C861.689 336.115 845.889 352.565 851.28 369.864L976.246 770.877Z" stroke="url(#paint8_linear_200_58)" stroke-opacity="0.2" stroke-width="4"/>
<path opacity="0.144928" d="M937.275 760.116C941.041 776.137 960.969 782.155 974.489 771.354L1307.97 504.939C1322.48 493.348 1318.78 471.387 1301.43 466.148L875.061 337.39C857.713 332.152 840.35 347.75 844.391 364.943L937.275 760.116Z" stroke="url(#paint9_linear_200_58)" stroke-opacity="0.2" stroke-width="4"/>
<path opacity="0.15942" d="M899.002 748.741C901.506 764.624 921.314 771.296 935.904 761.17L1292.75 513.494C1308.33 502.679 1306.3 481.092 1289.15 475.317L871.059 334.504C853.911 328.729 835.081 343.288 837.755 360.253L899.002 748.741Z" stroke="url(#paint10_linear_200_58)" stroke-opacity="0.2" stroke-width="4"/>
<path opacity="0.173913" d="M861.501 736.797C862.743 752.51 882.492 759.869 898.114 750.44L1276.88 521.814C1293.41 511.839 1292.92 490.79 1276.02 484.492L867.148 332.14C850.246 325.842 830.083 339.197 831.396 355.82L861.501 736.797Z" stroke="url(#paint11_linear_200_58)" stroke-opacity="0.2" stroke-width="4"/>
<path opacity="0.188406" d="M824.845 724.336C824.825 739.844 844.565 747.931 861.179 739.221L1260.39 529.919C1277.72 520.831 1278.64 500.448 1262.02 493.641L863.303 330.291C846.687 323.484 825.353 335.504 825.332 351.684L824.845 724.336Z" stroke="url(#paint12_linear_200_58)" stroke-opacity="0.2" stroke-width="4"/>
<path opacity="0.202899" d="M789.103 711.409C787.823 726.677 807.592 735.539 825.153 727.57L1243.26 537.826C1261.26 529.658 1263.43 510.031 1247.14 502.729L859.498 328.953C843.209 321.651 820.879 332.241 819.568 347.89L789.103 711.409Z" stroke="url(#paint13_linear_200_58)" stroke-opacity="0.2" stroke-width="4"/>
<path opacity="0.217391" d="M754.334 698.074C751.8 713.065 771.621 722.752 790.081 715.545L1225.5 545.551C1244.03 538.317 1247.28 519.504 1231.36 511.72L855.708 328.123C839.781 320.339 816.643 329.437 814.099 344.483L754.334 698.074Z" stroke="url(#paint14_linear_200_58)" stroke-opacity="0.2" stroke-width="4"/>
<path opacity="0.231884" d="M720.594 684.386C716.815 699.062 736.696 709.628 756.003 703.204L1207.06 553.105C1225.99 546.807 1230.18 528.83 1214.65 520.576L851.907 327.799C836.375 319.545 812.612 327.123 808.906 341.511L720.594 684.386Z" stroke="url(#paint15_linear_200_58)" stroke-opacity="0.2" stroke-width="4"/>
<path opacity="0.275362" d="M626.02 641.783C618.586 655.286 638.551 668.819 660.041 664.845L1147.43 574.707C1166.89 571.109 1173.12 555.544 1158.95 545.939L840.145 329.837C825.975 320.232 801.339 323.319 794.61 335.542L626.02 641.783Z" stroke="url(#paint16_linear_200_58)" stroke-opacity="0.2" stroke-width="4"/>
<path opacity="0.289855" d="M596.832 627.259C588.222 640.298 608.131 654.931 630.221 651.799L1126.03 581.511C1145.48 578.754 1152.19 563.908 1138.53 553.867L835.986 331.503C822.326 321.463 797.685 323.129 790.105 334.606L596.832 627.259Z" stroke="url(#paint17_linear_200_58)" stroke-opacity="0.2" stroke-width="4"/>
<path opacity="0.304348" d="M568.865 612.668C559.103 625.208 578.888 640.992 601.509 638.712L1103.84 588.078C1123.2 586.126 1130.33 571.942 1117.2 561.471L831.644 333.648C818.52 323.178 793.994 323.478 785.638 334.21L568.865 612.668Z" stroke="url(#paint18_linear_200_58)" stroke-opacity="0.2" stroke-width="4"/>
<path opacity="0.318841" d="M542.134 598.066C531.251 610.075 550.827 627.06 573.911 625.636L1080.85 594.383C1100.07 593.198 1107.56 579.615 1095 568.72L827.074 336.259C814.516 325.364 790.208 324.354 781.147 334.352L542.134 598.066Z" stroke="url(#paint19_linear_200_58)" stroke-opacity="0.2" stroke-width="4"/>
<path opacity="0.333333" d="M516.657 583.508C504.683 594.956 523.951 613.187 547.431 612.623L1057.07 600.397C1076.09 599.94 1083.91 586.9 1071.95 575.584L822.232 339.324C810.271 328.007 786.276 325.747 776.574 335.022L516.657 583.508Z" stroke="url(#paint20_linear_200_58)" stroke-opacity="0.2" stroke-width="4"/>
<path opacity="0.347826" d="M492.442 569.05C479.41 579.91 498.255 599.425 522.062 599.722L1032.49 606.09C1051.27 606.324 1059.41 593.769 1048.08 582.036L817.073 342.823C805.742 331.089 782.142 327.635 771.859 336.204L492.442 569.05Z" stroke="url(#paint21_linear_200_58)" stroke-opacity="0.2" stroke-width="4"/>
<path opacity="0.362319" d="M469.487 554.746C455.433 564.992 473.726 585.826 497.791 586.981L1007.14 611.432C1025.65 612.321 1034.1 600.199 1023.43 588.053L811.549 346.738C800.885 334.592 777.759 330.001 766.948 337.882L469.487 554.746Z" stroke="url(#paint22_linear_200_58)" stroke-opacity="0.2" stroke-width="4"/>
<path opacity="0.376812" d="M447.789 540.652C432.75 550.261 450.34 572.434 474.596 574.444L981.027 616.397C999.235 617.905 1008.01 606.166 998.051 593.616L805.618 351.043C795.661 338.493 773.077 332.819 761.787 340.032L447.789 540.652Z" stroke="url(#paint23_linear_200_58)" stroke-opacity="0.2" stroke-width="4"/>
<path opacity="0.391304" d="M427.33 526.821C411.345 535.771 428.07 559.297 452.448 562.154L954.188 620.955C972.069 623.051 981.181 611.655 971.977 598.708L799.233 355.716C790.028 342.769 768.05 336.066 756.325 342.631L427.33 526.821Z" stroke="url(#paint24_linear_200_58)" stroke-opacity="0.2" stroke-width="4"/>
<path opacity="0.405797" d="M408.084 513.307C391.192 521.577 406.871 546.451 431.305 550.148L926.647 625.083C944.182 627.735 953.663 616.648 945.26 603.317L792.349 360.726C783.946 347.394 762.637 339.715 750.515 345.65L408.084 513.307Z" stroke="url(#paint25_linear_200_58)" stroke-opacity="0.2" stroke-width="4"/>
<path opacity="0.42029" d="M390.011 500.161C372.254 507.733 386.691 533.932 411.114 538.457L898.44 628.758C915.613 631.94 925.5 621.136 917.951 607.438L784.927 366.039C777.378 352.341 756.797 343.738 744.312 349.063L390.011 500.161Z" stroke="url(#paint26_linear_200_58)" stroke-opacity="0.2" stroke-width="4"/>
<path opacity="0.434783" d="M373.057 487.43C354.479 494.288 367.466 521.765 391.811 527.107L869.603 631.958C886.401 635.645 896.74 625.108 890.103 611.066L776.928 371.622C770.291 357.58 750.494 348.107 737.675 352.839L373.057 487.43Z" stroke="url(#paint27_linear_200_58)" stroke-opacity="0.2" stroke-width="4"/>
<path opacity="0.449275" d="M357.154 475.163C337.8 481.29 349.119 509.968 373.317 516.113L840.176 634.667C856.588 638.835 867.428 628.558 861.763 614.204L768.314 377.435C762.648 363.08 743.692 352.793 730.565 356.948L357.154 475.163Z" stroke="url(#paint28_linear_200_58)" stroke-opacity="0.2" stroke-width="4"/>
<path opacity="0.463768" d="M342.217 463.395C322.135 468.778 331.564 498.549 355.545 505.48L810.199 636.867C826.218 641.496 837.616 631.488 832.983 616.859L759.056 383.435C754.423 368.806 736.359 357.763 722.944 361.358L342.217 463.395Z" stroke="url(#paint29_linear_200_58)" stroke-opacity="0.2" stroke-width="4"/>
<path opacity="0.478261" d="M328.143 452.161C307.382 456.786 314.703 487.506 338.4 495.203L779.72 638.546C795.338 643.618 807.349 633.895 803.81 619.044L749.13 389.576C745.591 374.724 728.466 362.988 714.783 366.036L328.143 452.161Z" stroke="url(#paint30_linear_200_58)" stroke-opacity="0.2" stroke-width="4"/>
<path opacity="0.492754" d="M314.816 441.483C293.429 445.339 298.434 476.822 321.777 485.264L748.781 639.69C763.993 645.192 776.675 635.786 774.288 620.772L738.518 395.812C736.131 380.798 719.989 368.437 706.051 370.95L314.816 441.483Z" stroke="url(#paint31_linear_200_58)" stroke-opacity="0.2" stroke-width="4"/>
<path opacity="0.507246" d="M302.105 431.371C280.147 434.449 282.658 466.471 305.574 475.633L717.433 640.294C732.234 646.211 745.637 637.166 744.453 622.062L727.212 402.096C726.028 386.991 710.904 374.078 696.723 376.065L302.105 431.371Z" stroke="url(#paint32_linear_200_58)" stroke-opacity="0.2" stroke-width="4"/>
<path opacity="0.521739" d="M289.878 421.828C267.409 424.119 267.278 456.418 289.698 466.273L685.723 640.348C700.106 646.67 714.279 638.045 714.341 622.932L715.212 408.379C715.273 393.266 701.19 379.88 686.775 381.35L289.878 421.828Z" stroke="url(#paint33_linear_200_58)" stroke-opacity="0.2" stroke-width="4"/>
<path opacity="0.536232" d="M278.004 412.837C255.086 414.337 252.218 446.62 274.068 457.137L653.699 639.847C667.66 646.566 682.637 638.428 683.973 623.397L702.524 414.62C703.86 399.59 690.83 385.811 676.187 386.77L278.004 412.837Z" stroke="url(#paint34_linear_200_58)" stroke-opacity="0.2" stroke-width="4"/>
<path opacity="0.550725" d="M266.367 404.375C243.064 405.081 237.42 437.037 258.631 448.181L621.414 638.789C634.945 645.898 650.751 638.323 653.374 623.473L689.169 420.783C691.792 405.932 679.811 391.842 664.945 392.292L266.367 404.375Z" stroke="url(#paint35_linear_200_58)" stroke-opacity="0.2" stroke-width="4"/>
<path opacity="0.565217" d="M254.87 396.407C231.248 396.32 222.857 427.633 243.358 439.368L588.918 637.171C602.013 644.666 618.655 637.736 622.56 623.162L675.166 426.837C679.071 412.263 668.122 397.941 653.035 397.884L254.87 396.407Z" stroke="url(#paint36_linear_200_58)" stroke-opacity="0.2" stroke-width="4"/>
<path opacity="0.57971" d="M243.445 388.897C219.575 388.018 208.532 418.383 228.254 430.669L556.266 634.994C568.913 642.872 586.385 636.67 591.549 622.47L660.54 432.762C665.704 418.562 655.755 404.079 640.448 403.516L243.445 388.897Z" stroke="url(#paint37_linear_200_58)" stroke-opacity="0.2" stroke-width="4"/>
<path opacity="0.594203" d="M232.058 381.805C208.009 380.14 194.471 409.277 213.348 422.07L523.509 632.259C535.697 640.519 553.976 635.127 560.36 621.388L645.318 438.546C651.702 424.808 642.702 410.228 627.176 409.153L232.058 381.805Z" stroke="url(#paint38_linear_200_58)" stroke-opacity="0.2" stroke-width="4"/>
<path opacity="0.608696" d="M220.703 375.098C196.548 372.657 180.725 400.323 198.694 413.578L490.706 628.97C502.42 637.611 521.468 633.104 529.017 619.906L629.52 444.185C637.069 430.987 628.963 416.361 613.217 414.769L220.703 375.098Z" stroke="url(#paint39_linear_200_58)" stroke-opacity="0.2" stroke-width="4"/>
<path opacity="0.623188" d="M209.402 368.749C185.213 365.542 167.354 391.544 184.357 405.214L457.91 625.133C469.132 634.155 488.902 630.603 497.551 618.011L613.164 449.677C621.813 437.085 614.533 422.45 598.568 420.334L209.402 368.749Z" stroke="url(#paint40_linear_200_58)" stroke-opacity="0.2" stroke-width="4"/>
<path opacity="0.637681" d="M198.19 362.741C174.039 358.784 154.423 382.978 170.404 397.012L425.182 620.754C435.89 630.158 456.325 627.622 466 615.688L596.263 455.025C605.938 443.092 599.414 428.471 583.231 425.82L198.19 362.741Z" stroke="url(#paint41_linear_200_58)" stroke-opacity="0.2" stroke-width="4"/>
<path opacity="0.652174" d="M187.113 357.065C163.072 352.377 141.987 374.67 156.894 389.017L392.579 615.844C402.748 625.63 423.784 624.164 434.411 612.928L578.821 460.234C589.448 448.998 583.608 434.396 567.208 431.198L187.113 357.065Z" stroke="url(#paint42_linear_200_58)" stroke-opacity="0.2" stroke-width="4"/>
<path opacity="0.666667" d="M176.218 351.724C152.356 346.323 130.091 366.673 143.879 381.28L360.161 610.414C369.761 620.583 391.329 620.232 402.831 609.719L560.839 465.303C572.341 454.79 567.119 440.201 550.507 436.441L176.218 351.724Z" stroke="url(#paint43_linear_200_58)" stroke-opacity="0.2" stroke-width="4"/>
<path opacity="0.681159" d="M165.541 346.722C141.929 340.633 118.763 359.035 131.39 373.849L327.987 604.479C336.982 615.032 359.013 615.836 371.319 606.061L542.314 470.232C554.62 460.457 549.953 445.86 533.134 441.523L165.541 346.722Z" stroke="url(#paint44_linear_200_58)" stroke-opacity="0.2" stroke-width="4"/>
<path opacity="0.695652" d="M155.11 342.072C131.818 335.321 108.009 351.807 119.44 366.772L296.118 598.057C304.47 608.991 326.89 610.985 339.932 601.955L523.243 475.015C536.285 465.984 532.117 451.351 515.099 446.418L155.11 342.072Z" stroke="url(#paint45_linear_200_58)" stroke-opacity="0.2" stroke-width="4"/>
<path opacity="0.710145" d="M144.944 337.786C122.038 330.402 97.8268 345.031 108.031 360.091L264.613 591.168C272.278 602.48 295.015 605.697 308.73 597.409L503.622 479.645C517.337 471.358 513.624 456.646 496.418 451.099L144.944 337.786Z" stroke="url(#paint46_linear_200_58)" stroke-opacity="0.2" stroke-width="4"/>
<path opacity="0.724638" d="M135.044 333.879C112.592 325.893 88.1931 338.744 97.1452 353.84L233.531 583.833C240.461 595.518 263.437 599.988 277.77 592.439L483.445 484.109C497.777 476.56 494.485 461.723 477.105 455.542L135.044 333.879Z" stroke="url(#paint47_linear_200_58)" stroke-opacity="0.2" stroke-width="4"/>
<path opacity="0.73913" d="M125.402 330.362C103.469 321.81 79.072 332.975 86.7521 348.049L202.932 576.077C209.072 588.128 232.209 593.88 247.11 587.06L462.709 488.394C477.61 481.574 474.715 466.559 457.181 459.722L125.402 330.362Z" stroke="url(#paint48_linear_200_58)" stroke-opacity="0.2" stroke-width="4"/>
<path opacity="0.753623" d="M116.002 327.246C94.65 318.166 70.4195 327.747 76.8157 342.741L172.874 567.929C178.165 580.334 201.38 587.399 216.806 581.299L441.415 492.483C456.842 486.383 454.334 471.131 436.669 463.618L116.002 327.246Z" stroke="url(#paint49_linear_200_58)" stroke-opacity="0.2" stroke-width="4"/>
<path opacity="0.768116" d="M106.816 324.539C86.1073 314.971 62.1841 323.076 67.2894 337.93L143.413 559.419C147.793 572.163 170.997 580.57 186.91 575.179L419.566 496.359C435.479 490.967 433.361 475.417 415.594 467.208L106.816 324.539Z" stroke="url(#paint50_linear_200_58)" stroke-opacity="0.2" stroke-width="4"/>
<path opacity="0.782609" d="M97.8129 322.247C77.8059 312.234 54.3088 318.972 58.1242 333.627L114.606 550.583C118.006 563.645 141.103 573.424 157.47 568.731L397.166 500.002C413.533 495.309 411.822 479.397 393.99 470.473L97.8129 322.247Z" stroke="url(#paint51_linear_200_58)" stroke-opacity="0.2" stroke-width="4"/>
<path opacity="0.797101" d="M88.9559 320.371C69.7063 309.96 46.7317 315.439 49.2653 329.837L86.5049 541.457C88.8553 554.812 111.742 565.992 128.532 561.987L374.226 503.393C391.017 499.388 389.744 483.054 371.889 473.397L88.9559 320.371Z" stroke="url(#paint52_linear_200_58)" stroke-opacity="0.2" stroke-width="4"/>
<path opacity="0.811594" d="M80.2034 318.912C61.763 308.151 39.389 312.478 40.6568 326.56L59.1623 532.084C60.3881 545.699 82.946 558.305 100.134 554.981L350.757 506.512C367.945 503.188 367.16 486.37 349.332 475.966L80.2034 318.912Z" stroke="url(#paint53_linear_200_58)" stroke-opacity="0.2" stroke-width="4"/>
<path opacity="0.826087" d="M71.5152 317.866C53.931 306.805 32.2164 310.083 32.2422 323.794L32.6246 522.511C32.6514 536.345 54.7511 550.399 72.3101 547.749L326.778 509.34C344.337 506.689 344.108 489.334 326.367 478.174L71.5152 317.866Z" stroke="url(#paint54_linear_200_58)" stroke-opacity="0.2" stroke-width="4"/>
<path opacity="0.84058" d="M62.8487 317.23C46.1614 305.92 25.1453 308.246 23.9622 321.534L6.93193 512.788C5.68487 526.793 27.1841 542.309 45.0904 540.327L302.311 511.859C320.217 509.877 320.628 491.936 303.04 480.016L62.8487 317.23Z" stroke="url(#paint55_linear_200_58)" stroke-opacity="0.2" stroke-width="4"/>
<path opacity="0.855072" d="M54.1617 316.996C38.4058 305.489 18.113 306.955 15.7598 319.77L-17.8796 502.974C-20.472 517.092 0.266049 534.071 18.4952 532.754L277.383 514.053C295.612 512.736 296.767 494.176 279.409 481.499L54.1617 316.996Z" stroke="url(#paint56_linear_200_58)" stroke-opacity="0.2" stroke-width="4"/>
<path opacity="0.869565" d="M45.4111 317.157C30.6132 305.504 11.054 306.194 7.5772 318.493L-41.7886 493.127C-45.7929 507.292 -25.9867 525.72 -7.45985 525.066L252.027 515.905C270.554 515.251 272.576 496.053 255.532 482.631L45.4111 317.157Z" stroke="url(#paint57_linear_200_58)" stroke-opacity="0.2" stroke-width="4"/>
<path opacity="0.884058" d="M36.5575 317.704C22.7357 305.952 3.9025 305.945 -0.645657 317.689L-64.7832 483.315C-70.257 497.452 -51.5684 517.292 -32.7715 517.3L226.284 517.404C245.081 517.412 248.112 497.581 231.476 483.435L36.5575 317.704Z" stroke="url(#paint58_linear_200_58)" stroke-opacity="0.2" stroke-width="4"/>
<path opacity="0.898551" d="M27.559 318.628C14.7225 306.822 -3.4031 306.185 -8.96636 317.344L-86.8659 473.607C-93.8563 487.629 -76.4791 508.821 -57.4416 509.49L200.201 518.542C219.239 519.211 223.433 498.777 207.303 483.942L27.559 318.628Z" stroke="url(#paint59_linear_200_58)" stroke-opacity="0.2" stroke-width="4"/>
<path opacity="0.913043" d="M18.3776 319.916C6.52686 308.096 -10.9241 306.89 -17.4441 317.441L-108.06 464.072C-116.598 477.889 -100.73 500.338 -81.4855 501.668L173.832 519.312C193.077 520.642 198.599 499.671 183.08 484.192L18.3776 319.916Z" stroke="url(#paint60_linear_200_58)" stroke-opacity="0.2" stroke-width="4"/>
<path opacity="0.927536" d="M8.97298 321.557C-1.90001 309.757 -18.7181 308.033 -26.1369 317.958L-128.409 454.78C-138.508 468.292 -124.34 491.872 -104.925 493.863L147.238 519.717C166.653 521.707 173.667 500.299 158.865 484.234L8.97298 321.557Z" stroke="url(#paint61_linear_200_58)" stroke-opacity="0.2" stroke-width="4"/>
<path opacity="0.942029" d="M-0.692594 323.54C-10.6035 311.786 -26.8419 309.584 -35.1033 318.874L-147.974 445.796C-159.628 458.901 -147.336 483.446 -127.792 486.096L120.484 519.761C140.027 522.411 148.693 500.707 134.712 484.126L-0.692594 323.54Z" stroke="url(#paint62_linear_200_58)" stroke-opacity="0.2" stroke-width="4"/>
<path opacity="0.956522" d="M-10.6589 325.845C-19.6288 314.157 -35.3466 311.509 -44.3991 320.16L-166.838 437.174C-180.016 449.768 -169.75 475.081 -150.123 478.388L93.6358 519.458C113.263 522.765 123.72 500.944 110.661 483.929L-10.6589 325.845Z" stroke="url(#paint63_linear_200_58)" stroke-opacity="0.2" stroke-width="4"/>
<path opacity="0.971014" d="M-20.964 328.459C-29.0183 316.849 -44.2804 313.776 -54.0785 321.79L-185.095 428.955C-199.746 440.939 -191.619 466.79 -171.956 470.75L66.7602 518.825C86.4233 522.785 98.7792 501.059 86.736 483.699L-20.964 328.459Z" stroke="url(#paint64_linear_200_58)" stroke-opacity="0.2" stroke-width="4"/>
<path opacity="0.985507" d="M-31.646 331.36C-38.8118 319.834 -53.6863 316.347 -64.1911 323.728L-202.851 421.167C-218.898 432.444 -212.974 458.584 -193.326 463.191L39.9199 517.883C59.5673 522.49 73.8864 501.097 62.94 483.49L-31.646 331.36Z" stroke="url(#paint65_linear_200_58)" stroke-opacity="0.2" stroke-width="4"/>
<path d="M-42.7449 334.526C-49.0492 323.086 -63.6039 319.186 -74.7836 325.942L-220.209 413.815C-237.558 424.298 -233.846 450.47 -214.266 455.716L13.1632 516.656C32.7429 521.902 49.0433 501.093 39.2603 483.339L-42.7449 334.526Z" stroke="url(#paint66_linear_200_58)" stroke-opacity="0.2" stroke-width="4"/>
<defs>
<linearGradient id="paint0_linear_200_58" x1="1340.19" y1="872.217" x2="1340.46" y2="200.491" gradientUnits="userSpaceOnUse">
<stop stop-color="#01578B"/>
<stop offset="1" stop-color="#00F0FF"/>
</linearGradient>
<linearGradient id="paint1_linear_200_58" x1="1294.81" y1="867.153" x2="1317.88" y2="210.392" gradientUnits="userSpaceOnUse">
<stop stop-color="#01578B"/>
<stop offset="1" stop-color="#00F0FF"/>
</linearGradient>
<linearGradient id="paint2_linear_200_58" x1="1249.6" y1="861.226" x2="1294" y2="218.785" gradientUnits="userSpaceOnUse">
<stop stop-color="#01578B"/>
<stop offset="1" stop-color="#00F0FF"/>
</linearGradient>
<linearGradient id="paint3_linear_200_58" x1="1204.65" y1="854.464" x2="1269.12" y2="225.674" gradientUnits="userSpaceOnUse">
<stop stop-color="#01578B"/>
<stop offset="1" stop-color="#00F0FF"/>
</linearGradient>
<linearGradient id="paint4_linear_200_58" x1="1160.01" y1="846.896" x2="1243.51" y2="231.084" gradientUnits="userSpaceOnUse">
<stop stop-color="#01578B"/>
<stop offset="1" stop-color="#00F0FF"/>
</linearGradient>
<linearGradient id="paint5_linear_200_58" x1="1115.77" y1="838.552" x2="1217.45" y2="235.057" gradientUnits="userSpaceOnUse">
<stop stop-color="#01578B"/>
<stop offset="1" stop-color="#00F0FF"/>
</linearGradient>
<linearGradient id="paint6_linear_200_58" x1="1072" y1="829.467" x2="1191.18" y2="237.648" gradientUnits="userSpaceOnUse">
<stop stop-color="#01578B"/>
<stop offset="1" stop-color="#00F0FF"/>
</linearGradient>
<linearGradient id="paint7_linear_200_58" x1="1028.75" y1="819.676" x2="1164.93" y2="238.921" gradientUnits="userSpaceOnUse">
<stop stop-color="#01578B"/>
<stop offset="1" stop-color="#00F0FF"/>
</linearGradient>
<linearGradient id="paint8_linear_200_58" x1="986.099" y1="809.214" x2="1138.9" y2="238.953" gradientUnits="userSpaceOnUse">
<stop stop-color="#01578B"/>
<stop offset="1" stop-color="#00F0FF"/>
</linearGradient>
<linearGradient id="paint9_linear_200_58" x1="944.104" y1="798.122" x2="1113.3" y2="237.829" gradientUnits="userSpaceOnUse">
<stop stop-color="#01578B"/>
<stop offset="1" stop-color="#00F0FF"/>
</linearGradient>
<linearGradient id="paint10_linear_200_58" x1="902.825" y1="786.438" x2="1088.33" y2="235.642" gradientUnits="userSpaceOnUse">
<stop stop-color="#01578B"/>
<stop offset="1" stop-color="#00F0FF"/>
</linearGradient>
<linearGradient id="paint11_linear_200_58" x1="862.316" y1="774.202" x2="1064.17" y2="232.491" gradientUnits="userSpaceOnUse">
<stop stop-color="#01578B"/>
<stop offset="1" stop-color="#00F0FF"/>
</linearGradient>
<linearGradient id="paint12_linear_200_58" x1="822.628" y1="761.458" x2="1040.98" y2="228.49" gradientUnits="userSpaceOnUse">
<stop stop-color="#01578B"/>
<stop offset="1" stop-color="#00F0FF"/>
</linearGradient>
<linearGradient id="paint13_linear_200_58" x1="783.811" y1="748.249" x2="1018.93" y2="223.758" gradientUnits="userSpaceOnUse">
<stop stop-color="#01578B"/>
<stop offset="1" stop-color="#00F0FF"/>
</linearGradient>
<linearGradient id="paint14_linear_200_58" x1="745.908" y1="734.617" x2="998.192" y2="218.428" gradientUnits="userSpaceOnUse">
<stop stop-color="#01578B"/>
<stop offset="1" stop-color="#00F0FF"/>
</linearGradient>
<linearGradient id="paint15_linear_200_58" x1="708.962" y1="720.608" x2="978.912" y2="212.645" gradientUnits="userSpaceOnUse">
<stop stop-color="#01578B"/>
<stop offset="1" stop-color="#00F0FF"/>
</linearGradient>
<linearGradient id="paint16_linear_200_58" x1="604.215" y1="676.768" x2="931.275" y2="194.279" gradientUnits="userSpaceOnUse">
<stop stop-color="#01578B"/>
<stop offset="1" stop-color="#00F0FF"/>
</linearGradient>
<linearGradient id="paint17_linear_200_58" x1="571.429" y1="661.702" x2="919.237" y2="188.488" gradientUnits="userSpaceOnUse">
<stop stop-color="#01578B"/>
<stop offset="1" stop-color="#00F0FF"/>
</linearGradient>
<linearGradient id="paint18_linear_200_58" x1="539.748" y1="646.485" x2="909.312" y2="183.263" gradientUnits="userSpaceOnUse">
<stop stop-color="#01578B"/>
<stop offset="1" stop-color="#00F0FF"/>
</linearGradient>
<linearGradient id="paint19_linear_200_58" x1="509.188" y1="631.161" x2="901.589" y2="178.89" gradientUnits="userSpaceOnUse">
<stop stop-color="#01578B"/>
<stop offset="1" stop-color="#00F0FF"/>
</linearGradient>
<linearGradient id="paint20_linear_200_58" x1="479.766" y1="615.777" x2="896.13" y2="175.695" gradientUnits="userSpaceOnUse">
<stop stop-color="#01578B"/>
<stop offset="1" stop-color="#00F0FF"/>
</linearGradient>
<linearGradient id="paint21_linear_200_58" x1="451.489" y1="600.375" x2="892.961" y2="174.044" gradientUnits="userSpaceOnUse">
<stop stop-color="#01578B"/>
<stop offset="1" stop-color="#00F0FF"/>
</linearGradient>
<linearGradient id="paint22_linear_200_58" x1="424.365" y1="584.999" x2="892.056" y2="174.349" gradientUnits="userSpaceOnUse">
<stop stop-color="#01578B"/>
<stop offset="1" stop-color="#00F0FF"/>
</linearGradient>
<linearGradient id="paint23_linear_200_58" x1="398.395" y1="569.693" x2="893.325" y2="177.064" gradientUnits="userSpaceOnUse">
<stop stop-color="#01578B"/>
<stop offset="1" stop-color="#00F0FF"/>
</linearGradient>
<linearGradient id="paint24_linear_200_58" x1="373.578" y1="554.496" x2="896.59" y2="182.684" gradientUnits="userSpaceOnUse">
<stop stop-color="#01578B"/>
<stop offset="1" stop-color="#00F0FF"/>
</linearGradient>
<linearGradient id="paint25_linear_200_58" x1="349.909" y1="539.451" x2="901.558" y2="191.734" gradientUnits="userSpaceOnUse">
<stop stop-color="#01578B"/>
<stop offset="1" stop-color="#00F0FF"/>
</linearGradient>
<linearGradient id="paint26_linear_200_58" x1="327.377" y1="524.595" x2="907.802" y2="204.747" gradientUnits="userSpaceOnUse">
<stop stop-color="#01578B"/>
<stop offset="1" stop-color="#00F0FF"/>
</linearGradient>
<linearGradient id="paint27_linear_200_58" x1="305.971" y1="509.968" x2="914.728" y2="222.233" gradientUnits="userSpaceOnUse">
<stop stop-color="#01578B"/>
<stop offset="1" stop-color="#00F0FF"/>
</linearGradient>
<linearGradient id="paint28_linear_200_58" x1="285.673" y1="495.605" x2="921.555" y2="244.632" gradientUnits="userSpaceOnUse">
<stop stop-color="#01578B"/>
<stop offset="1" stop-color="#00F0FF"/>
</linearGradient>
<linearGradient id="paint29_linear_200_58" x1="266.464" y1="481.542" x2="927.314" y2="272.248" gradientUnits="userSpaceOnUse">
<stop stop-color="#01578B"/>
<stop offset="1" stop-color="#00F0FF"/>
</linearGradient>
<linearGradient id="paint30_linear_200_58" x1="248.322" y1="467.811" x2="930.855" y2="305.171" gradientUnits="userSpaceOnUse">
<stop stop-color="#01578B"/>
<stop offset="1" stop-color="#00F0FF"/>
</linearGradient>
<linearGradient id="paint31_linear_200_58" x1="231.219" y1="454.446" x2="930.898" y2="343.195" gradientUnits="userSpaceOnUse">
<stop stop-color="#01578B"/>
<stop offset="1" stop-color="#00F0FF"/>
</linearGradient>
<linearGradient id="paint32_linear_200_58" x1="215.126" y1="441.474" x2="926.126" y2="385.745" gradientUnits="userSpaceOnUse">
<stop stop-color="#01578B"/>
<stop offset="1" stop-color="#00F0FF"/>
</linearGradient>
<linearGradient id="paint33_linear_200_58" x1="200.011" y1="428.924" x2="915.308" y2="431.829" gradientUnits="userSpaceOnUse">
<stop stop-color="#01578B"/>
<stop offset="1" stop-color="#00F0FF"/>
</linearGradient>
<linearGradient id="paint34_linear_200_58" x1="185.839" y1="416.822" x2="897.459" y2="480.055" gradientUnits="userSpaceOnUse">
<stop stop-color="#01578B"/>
<stop offset="1" stop-color="#00F0FF"/>
</linearGradient>
<linearGradient id="paint35_linear_200_58" x1="172.573" y1="405.192" x2="871.998" y2="528.71" gradientUnits="userSpaceOnUse">
<stop stop-color="#01578B"/>
<stop offset="1" stop-color="#00F0FF"/>
</linearGradient>
<linearGradient id="paint36_linear_200_58" x1="160.172" y1="394.056" x2="838.867" y2="575.911" gradientUnits="userSpaceOnUse">
<stop stop-color="#01578B"/>
<stop offset="1" stop-color="#00F0FF"/>
</linearGradient>
<linearGradient id="paint37_linear_200_58" x1="148.595" y1="383.433" x2="798.577" y2="619.813" gradientUnits="userSpaceOnUse">
<stop stop-color="#01578B"/>
<stop offset="1" stop-color="#00F0FF"/>
</linearGradient>
<linearGradient id="paint38_linear_200_58" x1="137.797" y1="373.341" x2="752.168" y2="658.811" gradientUnits="userSpaceOnUse">
<stop stop-color="#01578B"/>
<stop offset="1" stop-color="#00F0FF"/>
</linearGradient>
<linearGradient id="paint39_linear_200_58" x1="127.731" y1="363.795" x2="701.069" y2="691.714" gradientUnits="userSpaceOnUse">
<stop stop-color="#01578B"/>
<stop offset="1" stop-color="#00F0FF"/>
</linearGradient>
<linearGradient id="paint40_linear_200_58" x1="118.351" y1="354.809" x2="646.924" y2="717.839" gradientUnits="userSpaceOnUse">
<stop stop-color="#01578B"/>
<stop offset="1" stop-color="#00F0FF"/>
</linearGradient>
<linearGradient id="paint41_linear_200_58" x1="109.606" y1="346.394" x2="591.389" y2="737.014" gradientUnits="userSpaceOnUse">
<stop stop-color="#01578B"/>
<stop offset="1" stop-color="#00F0FF"/>
</linearGradient>
<linearGradient id="paint42_linear_200_58" x1="101.447" y1="338.557" x2="535.975" y2="749.513" gradientUnits="userSpaceOnUse">
<stop stop-color="#01578B"/>
<stop offset="1" stop-color="#00F0FF"/>
</linearGradient>
<linearGradient id="paint43_linear_200_58" x1="93.8211" y1="331.306" x2="481.932" y2="755.943" gradientUnits="userSpaceOnUse">
<stop stop-color="#01578B"/>
<stop offset="1" stop-color="#00F0FF"/>
</linearGradient>
<linearGradient id="paint44_linear_200_58" x1="86.6763" y1="324.645" x2="430.208" y2="757.118" gradientUnits="userSpaceOnUse">
<stop stop-color="#01578B"/>
<stop offset="1" stop-color="#00F0FF"/>
</linearGradient>
<linearGradient id="paint45_linear_200_58" x1="79.9589" y1="318.576" x2="381.44" y2="753.941" gradientUnits="userSpaceOnUse">
<stop stop-color="#01578B"/>
<stop offset="1" stop-color="#00F0FF"/>
</linearGradient>
<linearGradient id="paint46_linear_200_58" x1="73.616" y1="313.099" x2="335.994" y2="747.317" gradientUnits="userSpaceOnUse">
<stop stop-color="#01578B"/>
<stop offset="1" stop-color="#00F0FF"/>
</linearGradient>
<linearGradient id="paint47_linear_200_58" x1="67.5926" y1="308.211" x2="294.009" y2="738.087" gradientUnits="userSpaceOnUse">
<stop stop-color="#01578B"/>
<stop offset="1" stop-color="#00F0FF"/>
</linearGradient>
<linearGradient id="paint48_linear_200_58" x1="61.8355" y1="303.909" x2="255.459" y2="727" gradientUnits="userSpaceOnUse">
<stop stop-color="#01578B"/>
<stop offset="1" stop-color="#00F0FF"/>
</linearGradient>
<linearGradient id="paint49_linear_200_58" x1="56.29" y1="300.186" x2="220.194" y2="714.69" gradientUnits="userSpaceOnUse">
<stop stop-color="#01578B"/>
<stop offset="1" stop-color="#00F0FF"/>
</linearGradient>
<linearGradient id="paint50_linear_200_58" x1="50.9029" y1="297.033" x2="187.992" y2="701.681" gradientUnits="userSpaceOnUse">
<stop stop-color="#01578B"/>
<stop offset="1" stop-color="#00F0FF"/>
</linearGradient>
<linearGradient id="paint51_linear_200_58" x1="45.6209" y1="294.44" x2="158.582" y2="688.393" gradientUnits="userSpaceOnUse">
<stop stop-color="#01578B"/>
<stop offset="1" stop-color="#00F0FF"/>
</linearGradient>
<linearGradient id="paint52_linear_200_58" x1="40.3917" y1="292.396" x2="131.674" y2="675.153" gradientUnits="userSpaceOnUse">
<stop stop-color="#01578B"/>
<stop offset="1" stop-color="#00F0FF"/>
</linearGradient>
<linearGradient id="paint53_linear_200_58" x1="35.1634" y1="290.885" x2="106.976" y2="662.211" gradientUnits="userSpaceOnUse">
<stop stop-color="#01578B"/>
<stop offset="1" stop-color="#00F0FF"/>
</linearGradient>
<linearGradient id="paint54_linear_200_58" x1="29.8858" y1="289.894" x2="84.2019" y2="649.75" gradientUnits="userSpaceOnUse">
<stop stop-color="#01578B"/>
<stop offset="1" stop-color="#00F0FF"/>
</linearGradient>
<linearGradient id="paint55_linear_200_58" x1="24.5094" y1="289.403" x2="63.0798" y2="637.901" gradientUnits="userSpaceOnUse">
<stop stop-color="#01578B"/>
<stop offset="1" stop-color="#00F0FF"/>
</linearGradient>
<linearGradient id="paint56_linear_200_58" x1="18.9864" y1="289.394" x2="43.3561" y2="626.752" gradientUnits="userSpaceOnUse">
<stop stop-color="#01578B"/>
<stop offset="1" stop-color="#00F0FF"/>
</linearGradient>
<linearGradient id="paint57_linear_200_58" x1="13.2703" y1="289.847" x2="24.7971" y2="616.356" gradientUnits="userSpaceOnUse">
<stop stop-color="#01578B"/>
<stop offset="1" stop-color="#00F0FF"/>
</linearGradient>
<linearGradient id="paint58_linear_200_58" x1="7.31667" y1="290.741" x2="7.18884" y2="606.742" gradientUnits="userSpaceOnUse">
<stop stop-color="#01578B"/>
<stop offset="1" stop-color="#00F0FF"/>
</linearGradient>
<linearGradient id="paint59_linear_200_58" x1="1.08274" y1="292.052" x2="-9.66325" y2="597.916" gradientUnits="userSpaceOnUse">
<stop stop-color="#01578B"/>
<stop offset="1" stop-color="#00F0FF"/>
</linearGradient>
<linearGradient id="paint60_linear_200_58" x1="-5.4722" y1="293.755" x2="-25.9353" y2="589.867" gradientUnits="userSpaceOnUse">
<stop stop-color="#01578B"/>
<stop offset="1" stop-color="#00F0FF"/>
</linearGradient>
<linearGradient id="paint61_linear_200_58" x1="-12.3871" y1="295.828" x2="-41.7869" y2="582.574" gradientUnits="userSpaceOnUse">
<stop stop-color="#01578B"/>
<stop offset="1" stop-color="#00F0FF"/>
</linearGradient>
<linearGradient id="paint62_linear_200_58" x1="-19.6982" y1="298.242" x2="-57.3613" y2="576.005" gradientUnits="userSpaceOnUse">
<stop stop-color="#01578B"/>
<stop offset="1" stop-color="#00F0FF"/>
</linearGradient>
<linearGradient id="paint63_linear_200_58" x1="-27.4397" y1="300.972" x2="-72.7879" y2="570.12" gradientUnits="userSpaceOnUse">
<stop stop-color="#01578B"/>
<stop offset="1" stop-color="#00F0FF"/>
</linearGradient>
<linearGradient id="paint64_linear_200_58" x1="-35.6433" y1="303.989" x2="-88.183" y2="564.875" gradientUnits="userSpaceOnUse">
<stop stop-color="#01578B"/>
<stop offset="1" stop-color="#00F0FF"/>
</linearGradient>
<linearGradient id="paint65_linear_200_58" x1="-44.3377" y1="307.266" x2="-103.651" y2="560.219" gradientUnits="userSpaceOnUse">
<stop stop-color="#01578B"/>
<stop offset="1" stop-color="#00F0FF"/>
</linearGradient>
<linearGradient id="paint66_linear_200_58" x1="-53.55" y1="310.774" x2="-119.285" y2="556.1" gradientUnits="userSpaceOnUse">
<stop stop-color="#01578B"/>
<stop offset="1" stop-color="#00F0FF"/>
</linearGradient>
</defs>
</svg>
