<svg width="60" height="60" viewBox="0 0 60 60" fill="none" xmlns="http://www.w3.org/2000/svg">
<path d="M42.5002 17.4999C38.4282 17.4985 34.4528 18.7401 31.1053 21.0587C27.7579 23.3773 25.198 26.6624 23.7677 30.4749L28.4527 32.2324C29.6902 28.9459 32.0412 26.1976 35.0963 24.466C38.1514 22.7344 41.7171 22.1291 45.1725 22.7558C48.6279 23.3824 51.7541 25.2011 54.0067 27.8952C56.2592 30.5893 57.4955 33.9882 57.5002 37.4999C57.5002 41.4782 55.9198 45.2935 53.1068 48.1065C50.2937 50.9196 46.4784 52.4999 42.5002 52.4999H17.5002C13.9582 52.5022 10.5298 51.2509 7.82189 48.9679C5.11399 46.6848 3.30135 43.5171 2.70494 40.0257C2.10853 36.5344 2.76682 32.9446 4.56326 29.8921C6.35969 26.8395 9.17837 24.5211 12.5202 23.3474C12.306 19.029 13.6982 14.7841 16.4282 11.4312C19.1583 8.07834 23.0329 5.85481 27.3051 5.1893C31.5774 4.52379 35.9447 5.46343 39.5653 7.82706C43.1858 10.1907 45.8031 13.811 46.9127 17.9899C45.4646 17.6634 43.9846 17.499 42.5002 17.4999Z" fill="black"/>
</svg>
