<svg width="60" height="60" viewBox="0 0 60 60" fill="none" xmlns="http://www.w3.org/2000/svg">
<g clip-path="url(#clip0_258_1282)">
<path d="M10.1962 56.4619H18.8324V47.8369H10.1962V56.4619ZM2.97555 40.6181V47.8369H10.1943V40.6181H2.97555ZM57.6093 20.73C54.913 12.0356 47.953 5.10936 39.2568 2.37936C19.3237 -3.84377 0.935547 10.98 0.935547 29.9887H12.163C12.163 18.06 23.998 8.83686 36.5493 13.3837C38.8568 14.2223 40.9527 15.5558 42.6899 17.2907C44.4271 19.0256 45.7634 21.1198 46.6049 23.4262C51.1874 35.9662 41.953 47.7787 30.0355 47.8012V47.8369H29.9999V59.0644C49.0555 59.0644 63.8437 40.6894 57.6093 20.7319V20.73ZM30.0355 47.8012V36.6337H18.8324V47.8369H29.9999V47.8012H30.0355Z" fill="black"/>
</g>
<defs>
<clipPath id="clip0_258_1282">
<rect width="60" height="60" fill="white"/>
</clipPath>
</defs>
</svg>
