<svg width="19" height="20" viewBox="0 0 19 20" fill="none" xmlns="http://www.w3.org/2000/svg">
<path d="M12.8901 5.9375C12.3347 2.44922 11.0246 0 9.5 0C7.9754 0 6.66532 2.44922 6.10988 5.9375H12.8901ZM5.82258 9.6875C5.82258 10.5547 5.86855 11.3867 5.94899 12.1875H13.0472C13.1276 11.3867 13.1736 10.5547 13.1736 9.6875C13.1736 8.82031 13.1276 7.98828 13.0472 7.1875H5.94899C5.86855 7.98828 5.82258 8.82031 5.82258 9.6875ZM18.2607 5.9375C17.1651 3.28516 14.9472 1.23438 12.2083 0.40625C13.1429 1.72656 13.7865 3.71484 14.1236 5.9375H18.2607ZM6.7879 0.40625C4.05282 1.23438 1.83105 3.28516 0.739314 5.9375H4.87641C5.20968 3.71484 5.85323 1.72656 6.7879 0.40625ZM18.6706 7.1875H14.2768C14.3573 8.00781 14.4032 8.84766 14.4032 9.6875C14.4032 10.5273 14.3573 11.3672 14.2768 12.1875H18.6667C18.8774 11.3867 18.9962 10.5547 18.9962 9.6875C18.9962 8.82031 18.8774 7.98828 18.6706 7.1875ZM4.59677 9.6875C4.59677 8.84766 4.64274 8.00781 4.72319 7.1875H0.329435C0.122581 7.98828 0 8.82031 0 9.6875C0 10.5547 0.122581 11.3867 0.329435 12.1875H4.71935C4.64274 11.3672 4.59677 10.5273 4.59677 9.6875ZM6.10988 13.4375C6.66532 16.9258 7.9754 19.375 9.5 19.375C11.0246 19.375 12.3347 16.9258 12.8901 13.4375H6.10988ZM12.2121 18.9688C14.9472 18.1406 17.169 16.0898 18.2645 13.4375H14.1274C13.7903 15.6602 13.1468 17.6484 12.2121 18.9688ZM0.739314 13.4375C1.83488 16.0898 4.05282 18.1406 6.79173 18.9688C5.85706 17.6484 5.21351 15.6602 4.87641 13.4375H0.739314Z" fill="#848895"/>
</svg>
