<svg width="26" height="16" viewBox="0 0 26 16" fill="none" xmlns="http://www.w3.org/2000/svg">
<rect width="26" height="16" fill="#848895"/>
<path d="M19.9118 4.25151C19.3913 4.48253 18.839 4.63389 18.2735 4.70053C18.8694 4.3443 19.3152 3.7833 19.5277 3.12234C18.9678 3.45479 18.3552 3.68902 17.7164 3.81492C17.4495 3.53016 17.1271 3.30326 16.7689 3.1483C16.4108 2.99333 16.0246 2.91361 15.6344 2.91406C14.0593 2.91406 12.7823 4.19112 12.7823 5.76648C12.7823 5.98972 12.8074 6.20731 12.8562 6.41644C10.4856 6.29734 8.38356 5.16196 6.97669 3.43617C6.72294 3.8715 6.58968 4.36654 6.59061 4.87043C6.59061 5.8599 7.09409 6.73309 7.85948 7.24448C7.40652 7.2301 6.96354 7.1077 6.56747 6.88747L6.56718 6.92359C6.56718 8.30535 7.55044 9.45794 8.85544 9.72041C8.43524 9.83416 7.99466 9.85076 7.5671 9.76895C7.93032 10.9021 8.98357 11.727 10.2316 11.7499C9.22125 12.5429 7.97351 12.9731 6.6891 12.971C6.45909 12.971 6.2319 12.9575 6.00867 12.931C7.31283 13.7692 8.83081 14.2141 10.3811 14.2125C15.6279 14.2125 18.4967 9.86632 18.4967 6.09696C18.4967 5.97335 18.4942 5.85002 18.4888 5.72753C19.0473 5.3243 19.5292 4.82442 19.9118 4.25151Z" fill="black"/>
</svg>
