<svg width="60" height="60" viewBox="0 0 60 60" fill="none" xmlns="http://www.w3.org/2000/svg">
<path d="M22.7673 13.62C24.2623 9.245 30.3073 9.1125 32.0798 13.2225L32.2298 13.6225L34.2473 19.5225C34.7096 20.8756 35.4568 22.1138 36.4383 23.1536C37.4199 24.1933 38.613 25.0105 39.9373 25.55L40.4798 25.7525L46.3798 27.7675C50.7548 29.2625 50.8873 35.3075 46.7798 37.08L46.3798 37.23L40.4798 39.2475C39.1262 39.7096 37.8875 40.4566 36.8473 41.4381C35.8071 42.4197 34.9895 43.613 34.4498 44.9375L34.2473 45.4775L32.2323 51.38C30.7373 55.755 24.6923 55.8875 22.9223 51.78L22.7673 51.38L20.7523 45.48C20.2902 44.1265 19.5432 42.8878 18.5616 41.8475C17.58 40.8073 16.3868 39.9897 15.0623 39.45L14.5223 39.2475L8.62227 37.2325C4.24477 35.7375 4.11227 29.6925 8.22227 27.9225L8.62227 27.7675L14.5223 25.7525C15.8754 25.2901 17.1136 24.543 18.1533 23.5614C19.1931 22.5799 20.0103 21.3867 20.5498 20.0625L20.7523 19.5225L22.7673 13.62ZM47.4998 5C47.9675 5 48.4258 5.1312 48.8227 5.37868C49.2195 5.62616 49.539 5.98001 49.7448 6.4L49.8648 6.6925L50.7398 9.2575L53.3073 10.1325C53.776 10.2917 54.1869 10.5865 54.4878 10.9795C54.7888 11.3725 54.9664 11.846 54.998 12.3401C55.0296 12.8341 54.9138 13.3263 54.6653 13.7545C54.4169 14.1826 54.0469 14.5273 53.6023 14.745L53.3073 14.865L50.7423 15.74L49.8673 18.3075C49.7078 18.7761 49.4127 19.1867 49.0196 19.4875C48.6264 19.7882 48.1529 19.9655 47.6589 19.9968C47.1649 20.0281 46.6727 19.9121 46.2447 19.6634C45.8167 19.4148 45.4722 19.0447 45.2548 18.6L45.1348 18.3075L44.2598 15.7425L41.6923 14.8675C41.2236 14.7083 40.8127 14.4135 40.5117 14.0205C40.2107 13.6275 40.0332 13.154 40.0016 12.6599C39.97 12.1659 40.0858 11.6737 40.3342 11.2455C40.5827 10.8174 40.9527 10.4727 41.3973 10.255L41.6923 10.135L44.2573 9.26L45.1323 6.6925C45.3008 6.19856 45.6198 5.76977 46.0444 5.46625C46.4689 5.16272 46.9779 4.99969 47.4998 5Z" fill="black"/>
</svg>
