<svg width="1440" height="533" viewBox="0 0 1440 533" fill="none" xmlns="http://www.w3.org/2000/svg">
<path d="M1453.71 304.07C1466.72 254.415 1447.21 199.357 1409.03 162.879C1369.47 125.096 1313.29 113.67 1262.82 131C1214.11 147.751 1173.66 189.284 1168.72 240.922C1164.1 289.226 1192.08 347.707 1248.12 352.147C1295.43 355.889 1343.24 319.288 1345.88 272.794C1348.53 226.301 1310.59 183.47 1266.03 169.23C1209.79 151.278 1156.43 184.379 1119.27 220.642C1074.15 264.512 1039.51 324.874 976.435 347.338C926.703 365.049 868.187 356.125 822.388 328.175C799.36 314.318 780.043 295.231 766.186 272.642C751.285 247.878 744.475 215.221 755.078 188.55C766.868 158.879 800.12 150.337 829.709 163.015C862.228 176.981 880.249 209.221 895.126 238.702C923.519 295.008 946.936 360.405 932.604 422.209C919.847 476.911 875.681 527.829 814.032 528.517C744.141 529.292 689.475 474.868 657.114 419.122C639.564 388.875 625.952 356.657 612.211 324.764C598.237 292.34 584.478 259.804 568.952 227.957C539.471 167.645 502.957 109.458 450.133 65.2393C400.584 23.7534 338.342 -3.61122 273.291 0.386903C212.711 4.02824 156.968 31.6179 111.486 68.0774C54.5963 113.585 10.9596 172.449 -34.0908 228.534L-178.607 408.421L-247.896 494.682C-249.388 496.538 -246.506 499.124 -245.006 497.291L-102.219 319.566C-55.7759 261.74 -10.5779 202.696 37.8735 146.465C81.0204 96.4179 130.431 49.3787 193.392 23.3346C221.274 11.7985 251.331 4.51285 282.119 3.84299C315.623 3.35687 349.073 10.5182 379.779 24.751C513.798 85.7961 566.097 229.613 619.811 351.794C645.419 409.997 675.508 471.777 732.656 507.445C757.348 522.884 786.339 532.907 815.435 532.295C841.81 531.51 866.825 522.168 886.498 505.757C929.492 470.621 945.334 414.233 939.324 360.146C935.919 329.898 926.676 300.306 914.768 272.002C902.588 243.093 888.722 212.27 868.043 187.858C850.43 167.076 823.918 150.735 795.779 153.461C770.64 155.909 753.503 174.367 748.309 197.516C736.994 247.935 770.883 297.915 812.906 326.467C854.59 354.77 908.155 366.709 956.839 356.743C1018.79 344.015 1057.84 294.404 1096.52 250.582C1133.14 209.068 1183.57 160.911 1246.41 168.698C1296.61 174.914 1343.8 220.378 1342.11 270.717C1340.44 321.587 1281.25 361.549 1230.64 344.897C1169.98 324.959 1160.42 246.173 1185.43 199.397C1210.45 152.62 1266.18 123.015 1321.34 126.874C1378.75 130.925 1426.94 173.741 1445.62 225.704C1454.86 250.836 1456.35 277.782 1449.88 303.156C1449.27 305.503 1453.07 306.311 1453.71 304.07Z" fill="#00F0FF"/>
</svg>
