<svg width="40" height="40" viewBox="0 0 40 40" fill="none" xmlns="http://www.w3.org/2000/svg">
<g clip-path="url(#clip0_200_260)">
<path d="M33.1733 11.5017H16.5V28.1733H33.1717L33.1733 11.5017Z" fill="white"/>
<path d="M39.8417 8.16667V4.83333H36.5083V1.5H33.1733V4.83333H29.84V1.5H26.505V4.83333H23.1717V1.5H19.835V4.83333H16.5017V1.5H13.1667V4.83333H9.83333V8.16667H6.5V11.5017H9.83333V14.835H6.5V18.17H9.83333V21.5033H6.5V24.8383H9.83333V28.1717H6.5V31.5067H9.83333V34.84H13.1667V38.175H16.5017V34.8417H19.835V38.175H23.17V34.8417H26.5033V38.175H29.8383V34.8417H33.1717V38.175H36.5067V34.8417H39.84V31.5083H43.175V28.1733H39.8417V24.84H43.175V21.505H39.8417V18.1717H43.175V14.835H39.8417V11.5017H43.175V8.16667H39.8417ZM36.5083 31.5067H13.1667V8.16833H36.505L36.5083 31.5067Z" fill="white"/>
</g>
<defs>
<clipPath id="clip0_200_260">
<rect width="40" height="40" fill="white"/>
</clipPath>
</defs>
</svg>
