<svg width="40" height="40" viewBox="0 0 40 40" fill="none" xmlns="http://www.w3.org/2000/svg">
<g clip-path="url(#clip0_200_245)">
<path fill-rule="evenodd" clip-rule="evenodd" d="M41.4833 25.2067L30.1167 20.28L18.7467 25.2067V34.35H21.135V28.5117L30.1167 32.4033L41.4833 27.4767V25.2067ZM22.9233 31.845L22.9333 35.995L30.115 39.3617L37.3083 35.995V31.845L30.5767 34.6617L30.1167 34.855L29.655 34.6633L22.9217 31.8467L22.9233 31.845Z" fill="white"/>
<path fill-rule="evenodd" clip-rule="evenodd" d="M14.275 19.6017H24.6733L24.52 20.1017L16.3583 23.6383V26.4217L14.275 19.6017ZM21.135 31.1817L20.5217 33.19C19.9309 33.2317 19.3382 33.2384 18.7467 33.21V25.2067L23.6033 23.1033L21.855 28.825L21.135 28.5133V31.1817ZM24.3017 32.4233C23.9215 32.5538 23.5361 32.6689 23.1467 32.7683L23.3717 32.035L24.3017 32.4233ZM27.1183 31.1067L24.06 29.78L26.4817 21.855L30.115 20.2817L33.8767 21.91C33.4132 23.8128 32.5775 25.605 31.4179 27.1832C30.2582 28.7614 28.7975 30.0943 27.12 31.105L27.1183 31.1067ZM23.1467 4.045C26.1369 4.81179 28.8134 6.49239 30.8031 8.85256C32.7928 11.2127 33.9966 14.1349 34.2467 17.2117H27.17L23.1467 4.045ZM24.6733 17.2117L20.5217 3.625C19.8242 3.57617 19.1242 3.57617 18.4267 3.625L14.275 17.2133L24.6733 17.2117ZM4.70168 17.2117C4.95178 14.1349 6.15557 11.2127 8.14528 8.85256C10.135 6.49239 12.8115 4.81179 15.8017 4.045L11.7783 17.2117H4.70001H4.70168ZM15.8017 32.7667C12.8115 31.9999 10.135 30.3193 8.14528 27.9591C6.15557 25.5989 4.95178 22.6768 4.70168 19.6H11.7783L15.8017 32.7667Z" fill="white"/>
</g>
<defs>
<clipPath id="clip0_200_245">
<rect width="40" height="40" fill="white"/>
</clipPath>
</defs>
</svg>
