<svg width="40" height="40" viewBox="0 0 40 40" fill="none" xmlns="http://www.w3.org/2000/svg">
<g clip-path="url(#clip0_200_281)">
<g clip-path="url(#clip1_200_281)">
<path fill-rule="evenodd" clip-rule="evenodd" d="M26.5057 27.66C28.1629 26.7017 29.6106 25.4202 30.7628 23.8914C30.3915 23.3139 30.1273 22.6741 29.9828 22.0029L29.9286 21.7514C29.7729 21.0336 29.4064 20.3786 28.8759 19.8706C28.3454 19.3625 27.6753 19.0245 26.9514 18.9C21.0314 17.8714 21.0314 9.3743 26.9514 8.34287C27.6506 8.22252 28.3002 7.90294 28.8222 7.42248C29.3442 6.94202 29.7165 6.32112 29.8943 5.6343C28.5022 4.11734 26.7986 2.91922 24.9003 2.12201C23.0021 1.32479 20.9539 0.947321 18.8961 1.01545C16.8383 1.08359 14.8196 1.59571 12.9782 2.51675C11.1368 3.43779 9.51624 4.74598 8.22755 6.35169C6.93885 7.95741 6.01247 9.82271 5.51185 11.8198C5.01124 13.8169 4.94822 15.8987 5.32713 17.9224C5.70603 19.9461 6.5179 21.864 7.70712 23.5448C8.89634 25.2255 10.4348 26.6293 12.2171 27.66V31C12.2171 31.7578 12.5181 32.4845 13.054 33.0203C13.5898 33.5561 14.3165 33.8572 15.0743 33.8572H23.6457C24.4035 33.8572 25.1302 33.5561 25.666 33.0203C26.2018 32.4845 26.5028 31.7578 26.5028 31L26.5057 27.66ZM12.22 38.8572C12.22 38.2888 12.4457 37.7438 12.8476 37.3419C13.2495 36.9401 13.7945 36.7143 14.3628 36.7143H24.3628C24.9312 36.7143 25.4762 36.9401 25.8781 37.3419C26.2799 37.7438 26.5057 38.2888 26.5057 38.8572C26.5057 39.4255 26.2799 39.9705 25.8781 40.3724C25.4762 40.7743 24.9312 41 24.3628 41H14.3628C13.7945 41 13.2495 40.7743 12.8476 40.3724C12.4457 39.9705 12.22 39.4255 12.22 38.8572ZM33.02 5.90573C33.5428 3.51716 36.9428 3.50287 37.4857 5.88573L37.5114 6.00001L37.5628 6.22287C37.8712 7.52797 38.5555 8.71401 39.5311 9.63419C40.5066 10.5544 41.7305 11.1683 43.0514 11.4C45.5428 11.8343 45.5428 15.4114 43.0514 15.8457C41.7229 16.0785 40.4925 16.6978 39.5142 17.6263C38.5359 18.5548 37.8532 19.7512 37.5514 21.0657L37.4857 21.3572C36.9428 23.7429 33.54 23.7286 33.0143 21.3372L32.96 21.0886C32.6719 19.769 31.9974 18.565 31.0225 17.6303C30.0475 16.6955 28.8163 16.0723 27.4857 15.84C24.9971 15.4086 24.9971 11.8372 27.4857 11.4029C28.8116 11.1723 30.0393 10.5535 31.0133 9.62474C31.9872 8.69602 32.6638 7.49917 32.9571 6.18573L33 6.00001L33.02 5.90573Z" fill="white"/>
</g>
</g>
<defs>
<clipPath id="clip0_200_281">
<rect width="40" height="40" fill="white"/>
</clipPath>
<clipPath id="clip1_200_281">
<rect width="40" height="40" fill="white" transform="translate(5 1)"/>
</clipPath>
</defs>
</svg>
