<svg width="40" height="40" viewBox="0 0 40 40" fill="none" xmlns="http://www.w3.org/2000/svg">
<g clip-path="url(#clip0_200_294)">
<g clip-path="url(#clip1_200_294)">
<path d="M7.79753 39.6412H13.555V33.8912H7.79753V39.6412ZM2.98378 29.0787V33.8912H7.79628V29.0787H2.98378ZM39.4063 15.82C37.6088 10.0237 32.9688 5.40624 27.1713 3.58624C13.8825 -0.56251 1.62378 9.31999 1.62378 21.9925H9.10878C9.10878 14.04 16.9988 7.89124 25.3663 10.9225C26.9046 11.4815 28.3019 12.3705 29.46 13.5271C30.6181 14.6838 31.509 16.0799 32.07 17.6175C35.125 25.9775 28.9688 33.8525 21.0238 33.8675V33.8912H21V41.3762C33.7038 41.3762 43.5625 29.1262 39.4063 15.8212V15.82ZM21.0238 33.8675V26.4225H13.555V33.8912H21V33.8675H21.0238Z" fill="white"/>
</g>
</g>
<defs>
<clipPath id="clip0_200_294">
<rect width="40" height="40" fill="white"/>
</clipPath>
<clipPath id="clip1_200_294">
<rect width="40" height="40" fill="white" transform="translate(1 2)"/>
</clipPath>
</defs>
</svg>
