<svg width="60" height="60" viewBox="0 0 60 60" fill="none" xmlns="http://www.w3.org/2000/svg">
<path d="M35.3026 26.2C34.8338 25.7313 34.1981 25.468 33.5351 25.468C32.8722 25.468 32.2365 25.7313 31.7676 26.2L30.0001 27.965C29.0571 28.8757 27.7941 29.3797 26.4831 29.3683C25.1722 29.3569 23.9181 28.8311 22.991 27.904C22.064 26.977 21.5382 25.7229 21.5268 24.412C21.5154 23.101 22.0194 21.838 22.9301 20.895L37.0051 6.81495C40.3375 6.05702 43.8239 6.36895 46.9687 7.70639C50.1136 9.04383 52.7567 11.3387 54.5223 14.2647C56.288 17.1907 57.0862 20.5988 56.8035 24.0045C56.5208 27.4102 55.1715 30.6401 52.9476 33.235L47.6776 38.5725L35.3026 26.2ZM7.90264 11.17C10.4888 8.58221 13.8726 6.94289 17.5063 6.51732C21.14 6.09175 24.811 6.90482 27.9251 8.82495L19.3926 17.36C17.5446 19.2043 16.4912 21.6982 16.4575 24.3089C16.4237 26.9195 17.4124 29.4398 19.2121 31.3313C21.0118 33.2227 23.4799 34.3353 26.089 34.4313C28.6981 34.5273 31.2413 33.5991 33.1751 31.845L33.5351 31.5025L44.1426 42.1075L33.5351 52.715C32.5975 53.6523 31.326 54.1789 30.0001 54.1789C28.6743 54.1789 27.4028 53.6523 26.4651 52.715L7.90014 34.15C4.85297 31.1025 3.14111 26.9695 3.14111 22.66C3.14111 18.3504 4.85547 14.2174 7.90264 11.17Z" fill="black"/>
</svg>
