<svg width="60" height="60" viewBox="0 0 60 60" fill="none" xmlns="http://www.w3.org/2000/svg">
<g clip-path="url(#clip0_258_1304)">
<path d="M13.4 0.0924658C6.025 0.0924658 0 6.11747 0 13.4925V46.51C0 53.885 6.025 59.91 13.4 59.91H46.6C53.9625 59.91 60 53.885 60 46.51V13.49C60 6.11497 53.9625 0.0899658 46.6 0.0899658L13.4 0.0924658ZM29.8625 10.805C34.9045 10.8056 39.7462 12.7794 43.3516 16.304C46.9571 19.8286 49.0401 24.6242 49.155 29.665L49.1675 49.405H40.6925V46.09C37.5001 48.2536 33.7315 49.4085 29.875 49.405C27.8513 49.4011 25.8406 49.0823 23.915 48.46V36.885C25.584 38.3538 27.7318 39.1628 29.955 39.16C32.0836 39.1598 34.1458 38.4187 35.7876 37.0638C37.4294 35.709 38.5484 33.8249 38.9525 31.735H35.7425C35.3282 33.117 34.4329 34.305 33.2185 35.0841C32.0042 35.8632 30.5511 36.1819 29.1222 35.9825C27.6933 35.7831 26.3829 35.0788 25.4283 33.9971C24.4736 32.9153 23.9377 31.5276 23.9175 30.085V30.0075C23.9175 27.27 25.7375 24.95 28.2375 24.2175V21.0075C26.1457 21.4109 24.2595 22.5296 22.9025 24.1718C21.5454 25.8139 20.8021 27.8771 20.8 30.0075V47.1375C17.0021 45.1136 13.9895 41.8783 12.2411 37.946C10.4927 34.0136 10.1088 29.6096 11.1503 25.434C12.1918 21.2584 14.5991 17.5507 17.9895 14.9001C21.3799 12.2495 25.5589 10.8081 29.8625 10.805ZM29.94 15.48V18.575H29.955C32.9871 18.5763 35.8946 19.7816 38.0384 21.9258C40.1822 24.0701 41.3868 26.9778 41.3875 30.01V30.035H44.48V30.01C44.48 26.1577 42.9497 22.4632 40.2257 19.7392C37.5018 17.0153 33.8073 15.485 29.955 15.485L29.94 15.48ZM29.94 20.8525V23.9675H29.955C30.7483 23.9668 31.5338 24.1226 32.2668 24.4259C32.9998 24.7293 33.6657 25.1742 34.2265 25.7352C34.7873 26.2963 35.2319 26.9624 35.535 27.6955C35.838 28.4286 35.9935 29.2142 35.9925 30.0075V30.0325H39.11V30.0075C39.1107 28.805 38.8743 27.6143 38.4145 26.5032C37.9546 25.3922 37.2803 24.3827 36.43 23.5324C35.5798 22.6822 34.5703 22.0079 33.4592 21.548C32.3482 21.0882 31.1574 20.8518 29.955 20.8525H29.94ZM29.94 26.4825C27.99 26.4825 26.4175 28.055 26.4175 30.0075C26.4175 31.96 27.99 33.53 29.9425 33.53C31.895 33.53 33.465 31.9575 33.465 30.005C33.465 28.0525 31.8925 26.4825 29.94 26.4825Z" fill="black"/>
</g>
<defs>
<clipPath id="clip0_258_1304">
<rect width="60" height="60" fill="white"/>
</clipPath>
</defs>
</svg>
