<svg width="60" height="60" viewBox="0 0 60 60" fill="none" xmlns="http://www.w3.org/2000/svg">
<path fill-rule="evenodd" clip-rule="evenodd" d="M24.9998 11.25C24.9998 9.92392 25.5266 8.65215 26.4643 7.71447C27.402 6.77678 28.6737 6.25 29.9998 6.25C31.3259 6.25 32.5977 6.77678 33.5353 7.71447C34.473 8.65215 34.9998 9.92392 34.9998 11.25C34.9998 12.5761 34.473 13.8479 33.5353 14.7855C32.5977 15.7232 31.3259 16.25 29.9998 16.25C28.6737 16.25 27.402 15.7232 26.4643 14.7855C25.5266 13.8479 24.9998 12.5761 24.9998 11.25ZM29.9998 0C27.0161 0 24.1546 1.18526 22.0449 3.29505C19.9351 5.40483 18.7498 8.26631 18.7498 11.25C18.7498 14.2337 19.9351 17.0952 22.0449 19.205C24.1546 21.3147 27.0161 22.5 29.9998 22.5C32.9835 22.5 35.845 21.3147 37.9548 19.205C40.0645 17.0952 41.2498 14.2337 41.2498 11.25C41.2498 8.26631 40.0645 5.40483 37.9548 3.29505C35.845 1.18526 32.9835 0 29.9998 0ZM32.7048 25.9975C33.7258 24.9466 34.9455 24.1091 36.293 23.5338C37.6405 22.9584 39.089 22.6567 40.5541 22.6461C42.0193 22.6355 43.4719 22.9163 44.8276 23.4721C46.1833 24.028 47.415 24.8477 48.451 25.8838C49.4871 26.9198 50.3068 28.1515 50.8627 29.5072C51.4185 30.8629 51.6993 32.3155 51.6887 33.7807C51.6781 35.2458 51.3764 36.6943 50.801 38.0418C50.2257 39.3893 49.3882 40.609 48.3373 41.63L48.3348 41.635L48.3098 41.6575L31.7648 58.205L29.9973 59.9725L28.2298 58.205L11.6823 41.6575L11.6798 41.655L11.6598 41.635L11.6548 41.63C10.6094 40.5825 9.78516 39.3355 9.23106 37.9632C8.67697 36.5909 8.40432 35.1212 8.42931 33.6415C8.4543 32.1617 8.77641 30.7021 9.37652 29.3493C9.97663 27.9965 10.8425 26.778 11.9227 25.7664C13.0029 24.7547 14.2754 23.9705 15.6646 23.4602C17.0538 22.9499 18.5313 22.7241 20.0095 22.796C21.4877 22.8679 22.9364 23.2362 24.2695 23.8789C25.6026 24.5217 26.7929 25.4258 27.7698 26.5375L29.9948 28.7625L32.0523 26.705C32.2575 26.4589 32.4769 26.2228 32.7048 25.9975Z" fill="black"/>
</svg>
