<svg width="26" height="16" viewBox="0 0 26 16" fill="none" xmlns="http://www.w3.org/2000/svg">
<rect width="26" height="16" fill="#848895"/>
<path d="M20.5333 4.86683C20.5333 4.7335 20.3333 3.66683 19.8667 3.20016C19.2667 2.5335 18.6 2.46683 18.2667 2.46683H18.2C16.1333 2.3335 13.0667 2.3335 13 2.3335C13 2.3335 9.86668 2.3335 7.80001 2.46683H7.73334C7.40001 2.46683 6.73334 2.5335 6.13334 3.20016C5.66668 3.7335 5.46668 4.80016 5.46668 4.9335C5.46668 5.00016 5.33334 6.20016 5.33334 7.46683V8.60016C5.33334 9.86683 5.46668 11.0668 5.46668 11.1335C5.46668 11.2668 5.66668 12.3335 6.13334 12.8002C6.66668 13.4002 7.33334 13.4668 7.73334 13.5335H7.93334C9.13334 13.6668 12.8 13.6668 12.9333 13.6668C12.9333 13.6668 16.0667 13.6668 18.1333 13.5335H18.2C18.5333 13.4668 19.2 13.4002 19.8 12.8002C20.2667 12.2668 20.4667 11.2002 20.4667 11.0668C20.4667 11.0002 20.6 9.80016 20.6 8.5335V7.40016C20.6667 6.20016 20.5333 4.9335 20.5333 4.86683ZM15.6 8.1335L11.6 10.2668C11.5333 10.2668 11.5333 10.3335 11.4667 10.3335C11.4 10.3335 11.3333 10.3335 11.3333 10.2668C11.2667 10.2002 11.2 10.1335 11.2 10.0002V5.66683C11.2 5.5335 11.2667 5.46683 11.3333 5.40016C11.4 5.3335 11.5333 5.3335 11.6667 5.40016L15.6667 7.5335C15.8 7.60016 15.8667 7.66683 15.8667 7.80016C15.8667 7.9335 15.7333 8.06683 15.6 8.1335Z" fill="black"/>
</svg>
